<mxfile host="drawio-plugin" modified="2023-02-17T12:43:14.796Z" agent="5.0 (Macintosh; Intel Mac OS X 10_15_7) AppleWebKit/537.36 (KHTML, like Gecko) Chrome/104.0.5112.102 Safari/537.36" etag="8sBFsCVI178gw5jfIiNh" version="20.5.3" type="embed"><diagram id="23iRSUPoRavnBvh4doch" name="Page-1"><mxGraphModel dx="2911" dy="1076" grid="1" gridSize="10" guides="1" tooltips="1" connect="1" arrows="1" fold="1" page="1" pageScale="1" pageWidth="827" pageHeight="1169" math="0" shadow="0"><root><mxCell id="0"/><mxCell id="1" parent="0"/><mxCell id="2" value="Setup" style="strokeWidth=1;shadow=0;dashed=0;align=center;html=1;shape=mxgraph.mockup.containers.window;align=left;verticalAlign=top;spacingLeft=8;strokeColor2=#008cff;strokeColor3=#c4c4c4;fontColor=#666666;mainText=;fontSize=17;labelBackgroundColor=none;" vertex="1" parent="1"><mxGeometry x="-40" y="210" width="800" height="450" as="geometry"/></mxCell><mxCell id="4" value="Name&lt;sup&gt;&lt;font color=&quot;#ff0000&quot;&gt;*&lt;/font&gt;&lt;/sup&gt;" style="fillColor=none;strokeColor=none;html=1;fontSize=11;fontStyle=0;align=left;fontColor=#596780;fontStyle=1;fontSize=11" vertex="1" parent="1"><mxGeometry x="215" y="380" width="240" height="20" as="geometry"/></mxCell><mxCell id="5" value="&lt;font color=&quot;#b3b3b3&quot;&gt;Leon&lt;/font&gt;" style="rounded=1;arcSize=9;align=left;spacingLeft=5;strokeColor=#4C9AFF;html=1;strokeWidth=2;fontSize=12" vertex="1" parent="1"><mxGeometry x="215" y="400" width="290" height="33" as="geometry"/></mxCell><mxCell id="8" value="Bots&lt;sup&gt;&lt;font color=&quot;#ff0000&quot;&gt;*&lt;/font&gt;&lt;/sup&gt;" style="fillColor=none;strokeColor=none;html=1;fontSize=11;fontStyle=0;align=left;fontColor=#596780;fontStyle=1;fontSize=11" vertex="1" parent="1"><mxGeometry x="215" y="450" width="240" height="20" as="geometry"/></mxCell><mxCell id="11" value="" style="verticalLabelPosition=bottom;shadow=0;dashed=0;align=center;html=1;verticalAlign=top;strokeWidth=1;shape=mxgraph.mockup.forms.horSlider;strokeColor=#999999;sliderStyle=basic;sliderPos=1.695;handleStyle=circle;fillColor2=#ddeeff;fontColor=#B3B3B3;" vertex="1" parent="1"><mxGeometry x="215" y="480" width="295" height="30" as="geometry"/></mxCell><mxCell id="12" value="" style="verticalLabelPosition=bottom;shadow=0;dashed=0;align=center;html=1;verticalAlign=top;strokeWidth=1;shape=mxgraph.mockup.markup.line;strokeColor=#999999;direction=north;fontColor=#B3B3B3;" vertex="1" parent="1"><mxGeometry x="215" y="490" width="20" height="10" as="geometry"/></mxCell><mxCell id="13" value="" style="verticalLabelPosition=bottom;shadow=0;dashed=0;align=center;html=1;verticalAlign=top;strokeWidth=1;shape=mxgraph.mockup.markup.line;strokeColor=#999999;direction=north;fontColor=#B3B3B3;" vertex="1" parent="1"><mxGeometry x="350" y="490" width="20" height="10" as="geometry"/></mxCell><mxCell id="14" value="" style="verticalLabelPosition=bottom;shadow=0;dashed=0;align=center;html=1;verticalAlign=top;strokeWidth=1;shape=mxgraph.mockup.markup.line;strokeColor=#999999;direction=north;fontColor=#B3B3B3;" vertex="1" parent="1"><mxGeometry x="490" y="490" width="20" height="10" as="geometry"/></mxCell><mxCell id="15" value="&lt;font color=&quot;#000000&quot;&gt;1&lt;/font&gt;" style="text;html=1;strokeColor=none;fillColor=none;align=center;verticalAlign=middle;whiteSpace=wrap;rounded=0;fontColor=#B3B3B3;" vertex="1" parent="1"><mxGeometry x="212.5" y="520" width="25" height="10" as="geometry"/></mxCell><mxCell id="16" value="&lt;font color=&quot;#000000&quot;&gt;2&lt;/font&gt;" style="text;html=1;strokeColor=none;fillColor=none;align=center;verticalAlign=middle;whiteSpace=wrap;rounded=0;fontColor=#B3B3B3;" vertex="1" parent="1"><mxGeometry x="350" y="520" width="25" height="10" as="geometry"/></mxCell><mxCell id="17" value="&lt;font color=&quot;#000000&quot;&gt;3&lt;/font&gt;" style="text;html=1;strokeColor=none;fillColor=none;align=center;verticalAlign=middle;whiteSpace=wrap;rounded=0;fontColor=#B3B3B3;" vertex="1" parent="1"><mxGeometry x="487.5" y="520" width="25" height="10" as="geometry"/></mxCell><mxCell id="18" value="Play" style="rounded=1;fillColor=#0057D8;align=center;strokeColor=none;html=1;fontColor=#ffffff;fontSize=12;sketch=0;" vertex="1" parent="1"><mxGeometry x="655" y="610" width="86" height="33" as="geometry"/></mxCell></root></mxGraphModel></diagram></mxfile>